<?xml version="1.0" encoding="utf-8"?>
<!-- Generator: Adobe Illustrator 27.0.1, SVG Export Plug-In . SVG Version: 6.00 Build 0)  -->
<svg version="1.1" id="Layer_1" xmlns="http://www.w3.org/2000/svg" xmlns:xlink="http://www.w3.org/1999/xlink" x="0px" y="0px"
	 viewBox="0 0 512 512" style="enable-background:new 0 0 512 512;" xml:space="preserve">
<style type="text/css">
	.st0{fill:#E1E8ED;}
	.st1{fill:#23679A;}
	.st2{fill:#FFDC5F;}
	.st3{fill:#F9CB55;}
	.st4{fill:#FBAB36;}
	.st5{fill:#C26A50;}
	.st6{fill:#662314;}
	.st7{fill:#CDD7DE;}
	.st8{fill:#99AAB5;}
</style>
<path class="st0" d="M503,510v-28.2c0-46.8-37.9-84.7-84.7-84.7H192.5c-46.8,0-84.7,37.9-84.7,84.7V510H503z"/>
<path class="st1" d="M305.4,510L376,397.1H234.8L305.4,510z"/>
<path class="st2" d="M243.9,397.6c0,27.7,123.1,27.7,123.1,0v-52.9H243.9V397.6z"/>
<path class="st3" d="M243.7,368.5c17.2,19.4,38.4,24.6,61.6,24.6c23.1,0,44.4-5.3,61.6-24.6v-49.3H243.7L243.7,368.5L243.7,368.5z"
	/>
<path class="st4" d="M321.7,100.5c-27.2-8.8,20.4-52.2,4.4-31.4c-41.6,0.8-108,44.6-138.3,84.3c-32.7,42.8-25.7,69.6-20.7,106.5
	c5.7,41.8,29.2,55.1,47.9,60.7c27,35.7,55.7,34.2,104,34.2c94.2,0,130.4-69.3,125.4-156.8C440.6,155.9,390,122.6,321.7,100.5z"/>
<path class="st2" d="M411.9,189.2c-9.1-12.6-20.8-22.8-46.4-26.4c9.6,4.4,24.3,24.4,25.5,32.8c1.2,8.4,1.2,24.7-5.4,15.5
	c-28.9-40.2-68.8-33.9-101.7-54.4c-22.9-14.3-29.9-30.2-29.9-30.2s-2.8,21.2-37.6,42.8c-10.1,6.3-22.1,20.2-28.8,40.8
	c-4.8,14.8-3.3,28-3.3,50.5c0,65.8,54.2,121.1,121.1,121.1s121.1-55.8,121.1-121.1C426.6,219.6,422.3,203.6,411.9,189.2z"/>
<path class="st5" d="M319,294.1h-26.9c-3.7,0-6.7-3-6.7-6.7s3-6.7,6.7-6.7H319c3.7,0,6.7,3,6.7,6.7S322.7,294.1,319,294.1z"/>
<path class="st6" d="M251.7,247.1c-7.4,0-13.5-6-13.5-13.5v-13.5c0-7.4,6-13.5,13.5-13.5c7.4,0,13.5,6,13.5,13.5v13.5
	C265.2,241,259.1,247,251.7,247.1C251.7,247.1,251.7,247.1,251.7,247.1z M359.3,247.1c-7.4,0-13.5-6-13.5-13.5v-13.5
	c0-7.4,6-13.5,13.5-13.5s13.5,6,13.5,13.5v13.5C372.8,241,366.8,247.1,359.3,247.1z"/>
<path class="st5" d="M307.3,350.3c-38.9,0-50.8-10-52.8-12c-3.7-3.5-3.9-9.4-0.3-13.1c3.5-3.7,9.4-3.9,13.1-0.3
	c0.7,0.5,10.2,6.9,40.1,6.9c31.1,0,40-6.8,40.1-6.9c3.5-3.5,9.2-3.5,12.7,0.1c0.1,0.1,0.1,0.1,0.2,0.2c3.6,3.7,3.5,9.6-0.2,13.2
	C358.1,340.4,346.2,350.3,307.3,350.3"/>
<path class="st7" d="M434.9,171.3c0,0-37,14.1-129.5,14.1s-129.5-14.1-129.5-14.1V86.6h259.1L434.9,171.3L434.9,171.3z"/>
<path class="st8" d="M220.7,160.7c0,3.9-3.2,7.1-7.1,7.1c-3.9,0-7.1-3.2-7.1-7.1v-42.3c0-3.9,3.2-7.1,7.1-7.1c3.9,0,7.1,3.2,7.1,7.1
	V160.7z M404.2,160.7c0,3.9-3.2,7.1-7.1,7.1s-7.1-3.2-7.1-7.1v-42.3c0-3.9,3.2-7.1,7.1-7.1s7.1,3.2,7.1,7.1V160.7z M263.1,166.3
	c0,3.9-3.2,7.1-7.1,7.1s-7.1-3.2-7.1-7.1V124c0-3.9,3.2-7.1,7.1-7.1s7.1,3.2,7.1,7.1V166.3z M312.5,167.7c0,3.9-3.2,7.1-7.1,7.1
	s-7.1-3.2-7.1-7.1v-42.3c0-3.9,3.2-7.1,7.1-7.1s7.1,3.2,7.1,7.1V167.7z M361.9,166.3c0,3.9-3.2,7.1-7.1,7.1c-3.9,0-7.1-3.2-7.1-7.1
	V124c0-3.9,3.2-7.1,7.1-7.1c3.9,0,7.1,3.2,7.1,7.1V166.3z"/>
<path class="st0" d="M393.6,1.9c-16.3,0-31.6,4.5-44.7,12.3C321.8-2,288.1-2.2,260.7,13.4c-13.3-7.6-28.3-11.5-43.5-11.5
	c-48.7,0-88.2,39.5-88.2,88.2S288.4,136,304.2,136c16.3,0,177.6,2.9,177.6-45.9S442.3,1.9,393.6,1.9z"/>
<path class="st8" d="M136,351.2c0,48.7-28.4,74.1-63.5,74.1S9,399.9,9,351.2s28.4-102.3,63.5-102.3S136,302.5,136,351.2z"/>
<path class="st8" d="M58.4,397.1h28.2V510H58.4V397.1z"/>
<path class="st5" d="M136,351.2c0,48.7-28.4,74.1-63.5,74.1S9,399.9,9,351.2s28.4-102.3,63.5-102.3S136,302.5,136,351.2z"/>
<path class="st5" d="M58.4,397.1h28.2V510H58.4V397.1z"/>
<path class="st7" d="M205.1,65.2c3.8,0.8,7.6-1.6,8.4-5.4c0,0,0,0,0,0c0.4-2,4.7-20.3,18.6-31.2c10.7-8.4,24.7-13.9,28.3-15.3
	c-5.7-3.2-11.7-5.7-17.9-7.6c-6,3-12.9,6.9-19.1,11.7c-17.4,13.6-22.8,35.2-23.7,39.4C198.9,60.7,201.3,64.4,205.1,65.2z
	 M376.7,28.7c13.9,10.9,18.2,29.2,18.6,31.2c0.8,3.8,4.6,6.2,8.4,5.4s6.2-4.6,5.4-8.4c-0.9-4.2-6.3-25.7-23.7-39.4
	c-5.8-4.4-12-8.2-18.5-11.4c-6.1,1.9-11.9,4.5-17.5,7.6C354.2,15.7,366.8,21,376.7,28.7z"/>
</svg>
